<svg width="18" height="20" viewBox="0 0 18 20" fill="none" xmlns="http://www.w3.org/2000/svg">
<g clip-path="url(#clip0)">
<path d="M4.78004 19.9998C3.62905 19.9998 2.51798 19.4979 1.51336 18.4874C-0.655552 16.3057 -0.489224 13.5317 1.9558 11.0689L11.8822 1.11411C12.0785 0.916682 12.8104 0.250796 13.9214 0.0500263C14.6832 -0.0871662 15.8176 -0.0235892 16.8854 1.05053C17.9798 2.15141 18.0763 3.24896 17.9632 3.97842C17.8002 5.02577 17.1482 5.77865 16.8754 6.05304L6.90904 16.0581C6.62961 16.3425 5.96762 17.005 5.0628 17.005C4.50727 17.005 3.985 16.7607 3.50597 16.2789C3.16999 15.9409 2.19531 14.6995 3.87855 13.003L13.795 3.01807L14.7364 3.96503L4.81996 13.9466C3.94508 14.83 4.29437 15.1814 4.44406 15.3319C4.66361 15.5528 4.87319 15.6666 5.05947 15.6666C5.41542 15.6666 5.78799 15.2918 5.96762 15.1111L15.934 5.10942C16.1136 4.92873 16.5461 4.4335 16.6459 3.77765C16.7423 3.16196 16.5028 2.56634 15.944 2.00084C15.4117 1.46545 14.8096 1.25464 14.151 1.37176C13.5721 1.47549 13.0732 1.81011 12.8203 2.06441L2.90054 12.0192C1.54996 13.3811 0.372354 15.4457 2.45811 17.5438C4.49729 19.5949 6.53646 18.4037 7.89037 17.0418L16.4862 8.3552L17.4309 9.29881L8.83179 17.9888C7.49784 19.3273 6.11399 19.9998 4.78004 19.9998Z" fill="#614546"/>
</g>
<defs>
<clipPath id="clip0">
<rect width="18" height="20" fill="white"/>
</clipPath>
</defs>
</svg>
