<svg width="23" height="23" viewBox="0 0 23 23" fill="none" xmlns="http://www.w3.org/2000/svg">
  <path d="M17.6241 4.3125H5.37269C4.78769 4.3125 4.3125 4.77651 4.3125 5.34913V17.6509C4.3125 18.2231 4.78769 18.6879 5.37269 18.6879H17.6241C18.2103 18.6879 18.6875 18.2231 18.6875 17.6505V5.34913C18.6875 4.77651 18.2103 4.3125 17.6241 4.3125ZM8.5768 16.5619H6.44245V9.70168H8.5768V16.5619V16.5619ZM7.51023 8.76448C6.8254 8.76448 6.27314 8.21063 6.27314 7.5278C6.27314 6.84537 6.8254 6.29151 7.51023 6.29151C8.19226 6.29151 8.74611 6.84537 8.74611 7.5278C8.74571 8.21063 8.19226 8.76448 7.51023 8.76448ZM16.5623 16.5619H14.4304V13.226C14.4304 12.4306 14.4168 11.4072 13.3227 11.4072C12.2134 11.4072 12.0441 12.2741 12.0441 13.1693V16.5623H9.91451V9.70208H11.9582V10.6401H11.9874C12.2717 10.1006 12.9673 9.53197 14.0047 9.53197C16.1634 9.53197 16.5623 10.9523 16.5623 12.8V16.5619V16.5619Z" fill="#FFA998" />
</svg>