<svg width="264" height="44" viewBox="0 0 264 44" fill="none" xmlns="http://www.w3.org/2000/svg">
<g clip-path="url(#clip0)" filter="url(#filter0_d)">
<path d="M44.1146 7.76239V36.0055H40.5683V24.2225H40.4917C38.8772 27.8438 35.9603 28.5933 33.9135 28.5933C27.6856 28.5933 24.6155 23.7849 24.6155 17.9973C24.6155 12.248 27.609 7.28101 33.8752 7.28101C36.7101 7.28101 39.5887 8.7361 40.3767 11.8104H40.4971L40.4205 7.75145H44.1146V7.76239ZM40.53 17.6472V17.412C40.4534 13.353 38.3628 10.3225 34.4225 10.3225C30.0881 10.3225 28.2329 13.9438 28.2329 17.7676C28.2329 21.7445 29.7707 25.6448 34.3404 25.6448C39.1892 25.6448 40.53 21.5092 40.53 17.6472Z" fill="#614546"/>
<path d="M65.075 7.76233V28.1282H61.7257V23.7192H61.6491C60.664 27.1436 57.9824 28.6041 55.0272 28.6041C49.6694 28.6041 47.2615 25.5298 47.2615 21.1591V7.76233H50.8078V20.798C50.8078 24.6163 52.7396 25.6447 55.4978 25.6447C59.2794 25.6447 61.5287 23.8723 61.5287 18.5552V7.76233H65.075Z" fill="#614546"/>
<path d="M68.3857 4.09725V0H72.0086V4.09725H68.3857ZM71.9703 7.76235V28.1282H68.4241V7.76235H71.9703Z" fill="#614546"/>
<path d="M94.9064 18.0027C94.9064 23.7903 91.8308 28.5987 85.6084 28.5987C83.5616 28.5987 80.6447 27.8492 79.0248 24.2279H78.9481V36.0054H75.4019V7.76232H79.1068L79.0302 11.8213H79.1506C79.9387 8.74697 82.8173 7.29187 85.6521 7.29187C91.9074 7.2864 94.9064 12.248 94.9064 18.0027ZM91.278 17.762C91.278 13.9438 89.4283 10.3169 85.0885 10.3169C81.1481 10.3169 79.0576 13.3475 78.981 17.4064V17.6417C78.981 21.5037 80.3218 25.6392 85.1651 25.6392C89.7402 25.6447 91.278 21.7444 91.278 17.762Z" fill="#614546"/>
<path d="M115.67 18.9873H99.5526C99.9084 23.4784 102.114 25.6447 106.289 25.6447C109.086 25.6447 111.253 24.3428 111.844 21.6678H115.314C114.405 26.1972 110.903 28.5986 106.289 28.5986C99.5909 28.5986 96.2034 24.0692 96.0063 17.8823C96.0063 11.7392 100.417 7.28638 106.175 7.28638C113.617 7.28638 115.867 14.0641 115.67 18.9873ZM112.085 15.9896C111.888 12.8004 109.644 10.202 106.175 10.202C102.864 10.202 100.302 12.5269 99.673 15.9896H112.085Z" fill="#614546"/>
<path d="M134.501 19.146H123.036L119.686 28.1282H115.746L126.817 0H130.955L142.026 28.1228H137.806L134.501 19.146ZM124.097 16.1483H133.516L128.864 3.06883H128.787L124.097 16.1483Z" fill="#614546"/>
<path d="M160.234 0V28.1228H156.808V24.2225H156.731C155.117 27.8438 152.2 28.5932 150.147 28.5932C143.92 28.5932 140.849 23.7848 140.849 17.9973C140.849 12.248 143.843 7.28096 150.109 7.28096C152.944 7.28096 155.823 8.73606 156.611 11.8104H156.769L156.687 0H160.234ZM156.764 17.6472V17.3737C156.687 13.3147 154.597 10.3224 150.656 10.3224C146.322 10.3224 144.472 13.9438 144.472 17.7675C144.472 21.7444 146.01 25.6447 150.58 25.6447C155.423 25.6447 156.764 21.5092 156.764 17.6472Z" fill="#614546"/>
<path d="M181.429 7.76233L173.51 28.1282H169.449L161.41 7.76233H165.471L171.42 24.9773H171.496L177.445 7.76233H181.429Z" fill="#614546"/>
<path d="M182.846 4.09725V0H186.469V4.09725H182.846ZM186.436 7.76235V28.1282H182.89V7.76235H186.436Z" fill="#614546"/>
<path d="M196.561 25.7213C198.805 25.7213 201.88 25.1305 201.88 22.6087C201.88 19.9282 198.964 19.3812 195.888 18.7904C192.342 18.0793 188.56 17.2533 188.56 13.0794C188.56 8.98219 192.577 7.29187 196.167 7.29187C200.737 7.29187 203.851 8.27652 204.524 13.3201H201.251C200.622 10.5248 198.569 10.1692 196.402 10.1692C194.394 10.1692 192.106 10.8366 192.106 12.888C192.106 15.4864 195.653 15.6833 198.767 16.3944C202.116 17.1439 205.427 18.2872 205.427 22.182C205.427 27.067 200.54 28.6041 196.402 28.6041C192.265 28.6041 188.204 27.1873 187.892 22.1437H191.318C191.559 24.9336 193.879 25.7213 196.561 25.7213Z" fill="#614546"/>
<path d="M206.45 17.9589C206.45 11.4219 210.314 7.28638 216.498 7.28638C222.687 7.28638 226.546 11.4219 226.546 17.9589C226.546 24.4959 222.682 28.5932 216.498 28.5932C210.314 28.5986 206.45 24.5014 206.45 17.9589ZM222.999 17.9589C222.999 13.1943 220.476 10.1966 216.498 10.1966C212.519 10.1966 209.996 13.1888 209.996 17.9589C209.996 22.6853 212.519 25.6392 216.498 25.6392C220.476 25.6392 222.999 22.6907 222.999 17.9589Z" fill="#614546"/>
<path d="M232.221 19.064V28.1228H228.675V7.76239H232.024V12.8443H232.1C233.321 8.63216 236.511 7.09501 240.216 7.6858V11.0336C235.373 10.2404 232.221 13.0357 232.221 19.064Z" fill="#614546"/>
<path d="M260 7.76233L251.173 32.0668C250.308 34.5066 248.77 36.0055 246.012 36.0055H243.254V33.0515H245.497C246.838 33.0515 247.982 31.9903 248.453 30.5297L249.005 29.0308L240.928 7.76233H244.709L250.696 24.2662L256.448 7.76233H260Z" fill="#614546"/>
<path d="M7.7433 24.9719V15.2457H22.6016V12.0948H7.7433V3.15089H23.4279V0H4V10.0106C4.00547 11.1594 4.93582 12.0948 6.09056 12.0948H7.7433V15.2457H6.09056C4.93582 15.2457 4.00547 16.1757 4 17.3299V28.1282H23.5429V24.9774H7.7433V24.9719Z" fill="#614546"/>
</g>
<defs>
<filter id="filter0_d" x="0" y="0" width="264" height="44" filterUnits="userSpaceOnUse" color-interpolation-filters="sRGB">
<feFlood flood-opacity="0" result="BackgroundImageFix"/>
<feColorMatrix in="SourceAlpha" type="matrix" values="0 0 0 0 0 0 0 0 0 0 0 0 0 0 0 0 0 0 127 0"/>
<feOffset dy="4"/>
<feGaussianBlur stdDeviation="2"/>
<feColorMatrix type="matrix" values="0 0 0 0 0 0 0 0 0 0 0 0 0 0 0 0 0 0 0.25 0"/>
<feBlend mode="normal" in2="BackgroundImageFix" result="effect1_dropShadow"/>
<feBlend mode="normal" in="SourceGraphic" in2="effect1_dropShadow" result="shape"/>
</filter>
<clipPath id="clip0">
<rect width="256" height="36" fill="white" transform="translate(4)"/>
</clipPath>
</defs>
</svg>
