<svg width="328" height="464" viewBox="0 0 328 464" fill="none" xmlns="http://www.w3.org/2000/svg">
<g clip-path="url(#clip0)">
<path d="M5.11932 2.12679C5.45618 2.09302 5.75935 1.99171 6.02884 1.85663C6.29833 1.72155 6.50044 1.51893 6.66887 1.24877C6.8373 0.978607 6.97205 0.573366 7.03942 0.100586H7.8142V11.0083H6.8373V2.9035H3.974V2.19433C4.37823 2.19433 4.78246 2.16056 5.11932 2.12679Z" fill="#614546"/>
<path d="M315.435 455.153C315.771 455.119 316.075 455.018 316.344 454.883C316.614 454.747 316.816 454.545 316.984 454.275C317.153 454.005 317.287 453.599 317.355 453.126H318.129V464.034H317.153V455.929H314.289V455.22C314.694 455.186 315.098 455.186 315.435 455.153Z" fill="#614546"/>
<path d="M324.093 455.153C324.429 455.119 324.733 455.018 325.002 454.883C325.272 454.747 325.474 454.545 325.642 454.275C325.811 454.005 325.945 453.599 326.013 453.126H326.787V464.034H325.811V455.929H322.947V455.22C323.351 455.186 323.722 455.186 324.093 455.153Z" fill="#614546"/>
<path d="M310.617 458.631H19.4357V459.306H310.617V458.631Z" fill="#614546"/>
<path d="M1.14532 455.154C1.48218 455.12 1.78535 455.019 2.05484 454.884C2.32433 454.749 2.52645 454.546 2.69487 454.276C2.8633 454.006 2.99805 453.601 3.06542 453.128H3.8402V464.036H2.8633V455.931H0V455.222C0.437917 455.188 0.808462 455.188 1.14532 455.154Z" fill="#614546"/>
<path d="M7.68127 464C7.68127 463.46 7.78233 462.987 7.95076 462.582C8.11919 462.177 8.35499 461.805 8.65817 461.468C8.96134 461.13 9.26451 460.826 9.63506 460.556C10.0056 460.286 10.3762 460.016 10.7467 459.779C11.1172 459.509 11.5215 459.273 11.892 459.003C12.2626 458.732 12.5994 458.462 12.9026 458.158C13.2058 457.854 13.4416 457.55 13.5763 457.246C13.7111 456.943 13.8121 456.537 13.8121 456.132C13.8121 455.794 13.7447 455.457 13.61 455.187C13.4753 454.916 13.3068 454.68 13.071 454.477C12.8352 454.275 12.5994 454.14 12.2962 454.038C11.9931 453.937 11.6899 453.903 11.353 453.903C10.9151 453.903 10.5109 453.971 10.2077 454.14C9.90455 454.309 9.63506 454.545 9.43294 454.815C9.23083 455.085 9.09608 455.423 8.99503 455.794C8.89397 456.166 8.86028 456.537 8.89397 456.943H7.95076C7.95076 456.368 8.01813 455.862 8.15288 455.389C8.28762 454.916 8.52342 454.511 8.79291 454.173C9.09608 453.836 9.43294 453.566 9.90455 453.363C10.3425 453.16 10.8478 453.059 11.4541 453.059C11.9257 453.059 12.3636 453.127 12.7679 453.262C13.1721 453.397 13.5426 453.566 13.8458 453.836C14.149 454.106 14.3848 454.41 14.5532 454.781C14.7216 455.153 14.8227 455.626 14.8227 456.132C14.8227 456.605 14.7553 457.01 14.5869 457.382C14.4521 457.753 14.25 458.091 13.9805 458.395C13.7111 458.699 13.4416 459.003 13.1047 459.273C12.7679 459.543 12.431 459.779 12.0604 460.016C11.791 460.184 11.4878 460.387 11.1509 460.59C10.8141 460.792 10.4772 461.029 10.1403 461.299C9.80349 461.569 9.534 461.839 9.26451 462.143C9.02871 462.447 8.86028 462.785 8.79291 463.156H14.8227V464.068H7.68127V464Z" fill="#614546"/>
<path d="M316.883 58.8277C316.985 59.1991 317.187 59.4693 317.422 59.7394C317.658 59.9758 317.961 60.1785 318.298 60.3135C318.635 60.4486 319.039 60.5162 319.477 60.5162C319.848 60.5162 320.185 60.4486 320.522 60.3473C320.858 60.246 321.162 60.0771 321.397 59.8745C321.667 59.6719 321.869 59.4017 322.004 59.0978C322.172 58.7939 322.24 58.4562 322.24 58.0847C322.24 57.6795 322.172 57.3418 322.037 57.0716C321.903 56.8015 321.734 56.5313 321.465 56.3624C321.229 56.1598 320.959 56.0247 320.623 55.9234C320.319 55.8221 319.983 55.7884 319.612 55.7884H318.804V54.9779H319.612C319.848 54.9779 320.117 54.9441 320.387 54.8766C320.656 54.809 320.892 54.6739 321.094 54.5051C321.296 54.3362 321.465 54.1336 321.6 53.8972C321.734 53.6608 321.802 53.3569 321.802 53.0192C321.802 52.6477 321.734 52.3438 321.6 52.1074C321.465 51.8373 321.296 51.6346 321.094 51.4658C320.892 51.2969 320.623 51.1619 320.353 51.0943C320.084 51.0268 319.747 50.993 319.444 50.993C319.039 50.993 318.669 51.0606 318.366 51.1956C318.062 51.3307 317.793 51.5333 317.591 51.7697C317.389 52.0061 317.22 52.31 317.119 52.6477C317.018 52.9854 316.985 53.3569 316.985 53.7622H316.008C316.008 53.2556 316.075 52.7491 316.243 52.3438C316.412 51.9386 316.648 51.5333 316.917 51.2294C317.22 50.9255 317.557 50.6553 317.995 50.4865C318.433 50.3176 318.905 50.2163 319.41 50.2163C319.848 50.2163 320.252 50.2838 320.656 50.3852C321.061 50.4865 321.431 50.6553 321.734 50.8917C322.037 51.1281 322.307 51.3983 322.509 51.736C322.711 52.0737 322.812 52.5127 322.812 52.9854C322.812 53.5933 322.644 54.0999 322.341 54.5389C322.037 54.9779 321.566 55.2818 320.993 55.4169V55.4507C321.701 55.552 322.273 55.8559 322.644 56.3624C323.014 56.8352 323.216 57.4431 323.216 58.1523C323.216 58.6926 323.115 59.1654 322.913 59.5706C322.711 59.9758 322.442 60.3135 322.105 60.6175C321.768 60.9214 321.364 61.0902 320.892 61.2591C320.421 61.3942 319.949 61.4617 319.477 61.4617C318.905 61.4617 318.399 61.3604 317.928 61.2253C317.456 61.0902 317.052 60.8201 316.715 60.5162C316.378 60.2122 316.109 59.807 315.94 59.368C315.772 58.8952 315.704 58.3886 315.738 57.7808H316.715C316.715 58.0847 316.749 58.4562 316.883 58.8277Z" fill="#614546"/>
<path d="M312.405 5.09839H12.0269V5.77379H312.405V5.09839Z" fill="#614546"/>
<path d="M320.22 15.9729H319.546V47.4128H320.22V15.9729Z" fill="#614546"/>
<path d="M315.806 10.9753C315.806 10.4349 315.907 9.96216 316.075 9.55692C316.244 9.15168 316.479 8.7802 316.783 8.4425C317.086 8.1048 317.389 7.80087 317.759 7.53071C318.13 7.26055 318.501 6.99039 318.871 6.754C319.242 6.48384 319.646 6.24745 320.016 5.97729C320.387 5.70713 320.724 5.43697 321.027 5.13304C321.33 4.82911 321.566 4.52518 321.701 4.22125C321.835 3.91732 321.937 3.51208 321.937 3.10684C321.937 2.76914 321.869 2.43144 321.734 2.16128C321.6 1.89112 321.431 1.65473 321.195 1.45211C320.96 1.24949 320.724 1.11441 320.421 1.0131C320.118 0.911791 319.814 0.87802 319.477 0.87802C319.04 0.87802 318.635 0.945561 318.332 1.11441C318.029 1.28326 317.759 1.51965 317.557 1.78981C317.355 2.05997 317.22 2.39767 317.119 2.76914C317.018 3.14061 316.985 3.51208 317.018 3.91732H316.041C316.041 3.34323 316.109 2.83668 316.244 2.3639C316.378 1.89112 316.614 1.48588 316.884 1.14818C317.187 0.81048 317.524 0.54032 317.995 0.3377C318.433 0.10131 318.938 0 319.545 0C320.016 0 320.454 0.06754 320.859 0.20262C321.263 0.3377 321.633 0.50655 321.937 0.77671C322.24 1.04687 322.476 1.3508 322.644 1.72227C322.812 2.09374 322.913 2.56652 322.913 3.07307C322.913 3.54585 322.846 3.95109 322.678 4.32256C322.543 4.69403 322.341 5.03173 322.071 5.33566C321.802 5.63959 321.532 5.94352 321.195 6.21368C320.859 6.48384 320.522 6.72023 320.151 6.95662C319.882 7.12547 319.579 7.32809 319.242 7.53071C318.905 7.73333 318.568 7.96973 318.231 8.23989C317.894 8.51005 317.625 8.78021 317.355 9.08414C317.119 9.38807 316.951 9.72577 316.884 10.0972H322.913V11.009H315.806V10.9753Z" fill="#614546"/>
<path d="M312.439 55.9231H73.0664V56.5985H312.439V55.9231Z" fill="#614546"/>
<path d="M67.069 50.2163H67.9448V57.5782H69.5618V58.3887H67.9448V61.0903H67.0353V58.3887H62.0161V57.4431L67.069 50.2163ZM67.0353 51.6347L62.8919 57.5782H67.0353V51.6347Z" fill="#614546"/>
<path d="M68.0453 65.3784H67.3716V189.585H68.0453V65.3784Z" fill="#614546"/>
<path d="M41.1299 200.796H59.7582V200.121H41.1299C22.8384 200.121 7.91553 185.195 7.84816 166.858V15.9731H7.17444V166.858C7.24181 185.566 22.4679 200.796 41.1299 200.796Z" fill="#614546"/>
<path d="M65.4854 202.823C65.6201 203.127 65.8223 203.397 66.0581 203.633C66.2939 203.87 66.5633 204.039 66.9002 204.14C67.2034 204.241 67.5739 204.309 67.9445 204.309C68.3824 204.309 68.7529 204.241 69.0898 204.072C69.4266 203.903 69.6961 203.701 69.9319 203.431C70.1677 203.161 70.3362 202.823 70.4709 202.485C70.6057 202.114 70.673 201.742 70.673 201.371C70.673 200.965 70.6057 200.594 70.4709 200.256C70.3362 199.919 70.1341 199.615 69.8982 199.345C69.6624 199.074 69.3593 198.906 69.0224 198.737C68.6856 198.602 68.315 198.534 67.9108 198.534C67.4055 198.534 66.9676 198.635 66.5297 198.872C66.0917 199.108 65.7549 199.412 65.4854 199.817H64.6433L65.6875 194.178H71.1109V195.09H66.3612L65.6538 198.703L65.6875 198.737C65.957 198.433 66.2939 198.163 66.6981 197.994C67.1023 197.825 67.5402 197.724 67.9782 197.724C68.5508 197.724 69.0561 197.825 69.494 197.994C69.9319 198.163 70.3362 198.433 70.6393 198.77C70.9425 199.108 71.212 199.513 71.3804 199.952C71.5489 200.425 71.6499 200.932 71.6499 201.472C71.6499 202.012 71.5489 202.485 71.3467 202.958C71.1446 203.397 70.8751 203.802 70.5383 204.14C70.2014 204.478 69.7972 204.714 69.3256 204.917C68.854 205.085 68.3824 205.187 67.8434 205.187C67.3381 205.187 66.8665 205.119 66.4286 204.95C65.9907 204.815 65.6201 204.579 65.317 204.309C65.0138 204.039 64.7443 203.667 64.5759 203.262C64.4074 202.857 64.3064 202.384 64.2727 201.877H65.2496C65.2496 202.181 65.317 202.519 65.4854 202.823Z" fill="#614546"/>
<path d="M298.526 200.12H75.1877V200.796H298.526V200.12Z" fill="#614546"/>
<path d="M308.63 195.326C308.226 194.955 307.72 194.752 307.08 194.752C306.44 194.752 305.935 194.921 305.531 195.225C305.127 195.529 304.823 195.968 304.621 196.441C304.419 196.914 304.251 197.454 304.183 198.028C304.116 198.602 304.082 199.109 304.082 199.615H304.116C304.386 199.075 304.756 198.636 305.295 198.298C305.834 197.961 306.407 197.792 307.013 197.792C307.552 197.792 308.057 197.893 308.495 198.062C308.933 198.231 309.304 198.501 309.607 198.805C309.91 199.142 310.146 199.514 310.314 199.953C310.483 200.392 310.584 200.899 310.584 201.405C310.584 201.945 310.483 202.418 310.314 202.891C310.146 203.33 309.876 203.735 309.539 204.073C309.203 204.411 308.832 204.647 308.36 204.85C307.923 205.018 307.417 205.12 306.878 205.12C306.205 205.12 305.632 205.018 305.16 204.816C304.689 204.613 304.284 204.275 303.981 203.836C303.678 203.364 303.442 202.79 303.308 202.047C303.139 201.304 303.072 200.426 303.072 199.345C303.072 199.142 303.072 198.839 303.105 198.501C303.139 198.163 303.207 197.758 303.274 197.386C303.375 196.981 303.51 196.576 303.678 196.171C303.847 195.765 304.082 195.394 304.352 195.056C304.621 194.719 304.992 194.448 305.43 194.246C305.868 194.043 306.373 193.942 306.946 193.942C307.923 193.942 308.697 194.178 309.27 194.651C309.843 195.124 310.179 195.833 310.281 196.812H309.304C309.27 196.171 309.034 195.698 308.63 195.326ZM305.868 198.872C305.531 199.041 305.228 199.244 305.026 199.48C304.79 199.75 304.621 200.054 304.487 200.392C304.352 200.73 304.318 201.101 304.318 201.506C304.318 201.878 304.386 202.249 304.487 202.587C304.588 202.925 304.756 203.229 304.992 203.499C305.228 203.769 305.497 203.938 305.834 204.107C306.171 204.242 306.575 204.309 307.047 204.309C307.451 204.309 307.788 204.242 308.125 204.073C308.428 203.938 308.697 203.735 308.933 203.465C309.169 203.195 309.337 202.925 309.472 202.553C309.607 202.216 309.674 201.844 309.674 201.473C309.674 201.067 309.607 200.696 309.506 200.358C309.371 200.02 309.203 199.683 309 199.446C308.765 199.176 308.495 198.974 308.192 198.839C307.855 198.703 307.485 198.602 307.08 198.602C306.575 198.67 306.205 198.737 305.868 198.872Z" fill="#614546"/>
<path d="M306.913 209.171H306.239V241.118H306.913V209.171Z" fill="#614546"/>
<path d="M310.281 245.71V246.622C309.944 246.993 309.54 247.466 309.069 248.04C308.597 248.648 308.125 249.357 307.687 250.168C307.25 250.978 306.845 251.924 306.508 252.971C306.172 254.017 305.97 255.199 305.902 256.449H304.858C304.925 255.537 305.06 254.659 305.228 253.849C305.431 253.038 305.7 252.228 306.037 251.451C306.407 250.674 306.845 249.864 307.384 249.087C307.923 248.31 308.563 247.466 309.304 246.622H303.308V245.71H310.281Z" fill="#614546"/>
<path d="M299.637 250.911H74.6484V251.586H299.637V250.911Z" fill="#614546"/>
<path d="M68.0453 209.171H67.3716V241.118H68.0453V209.171Z" fill="#614546"/>
<path d="M60.2971 250.911H41.1299C22.4679 250.911 7.24181 266.141 7.17444 284.849V449.242H7.84816V284.849C7.91553 266.512 22.8384 251.586 41.1299 251.586H60.2971V250.911Z" fill="#614546"/>
<path d="M70.3029 249.73C69.9997 250.135 69.5618 250.439 68.9891 250.608V250.642C69.6965 250.777 70.2355 251.114 70.6397 251.587C71.0103 252.06 71.2124 252.702 71.2124 253.445C71.2124 253.985 71.1113 254.458 70.9092 254.897C70.7071 255.302 70.4376 255.64 70.1008 255.91C69.7639 256.18 69.3597 256.383 68.9218 256.518C68.4838 256.653 67.9786 256.72 67.4733 256.72C66.968 256.72 66.4964 256.653 66.0248 256.518C65.5532 256.383 65.1826 256.18 64.8121 255.91C64.4752 255.64 64.2057 255.302 64.0036 254.897C63.8015 254.491 63.7004 254.019 63.7004 253.445C63.7341 252.735 63.9362 252.127 64.3068 251.621C64.6773 251.114 65.2163 250.81 65.89 250.675V250.642C65.3174 250.473 64.8794 250.169 64.5763 249.764C64.2731 249.358 64.1047 248.852 64.1047 248.244C64.1047 247.771 64.2057 247.366 64.4078 247.028C64.61 246.691 64.8458 246.387 65.1489 246.184C65.4521 245.948 65.8227 245.779 66.1932 245.677C66.5974 245.576 67.0017 245.509 67.4059 245.509C67.8101 245.509 68.2144 245.576 68.6186 245.677C69.0228 245.779 69.3597 245.948 69.6965 246.184C69.9997 246.42 70.2692 246.691 70.4713 247.028C70.6734 247.366 70.7745 247.771 70.7745 248.244C70.7745 248.818 70.6061 249.325 70.3029 249.73ZM68.5512 255.741C68.8881 255.64 69.1913 255.504 69.4271 255.302C69.6629 255.099 69.865 254.829 70.0334 254.525C70.1681 254.221 70.2355 253.85 70.2355 253.445C70.2355 253.039 70.1681 252.702 69.9997 252.398C69.8313 252.094 69.6629 251.857 69.3934 251.655C69.1239 251.452 68.8544 251.317 68.5175 251.216C68.1807 251.114 67.8438 251.081 67.4733 251.081C67.1027 251.081 66.7322 251.114 66.3953 251.216C66.0585 251.317 65.7553 251.452 65.5195 251.655C65.2837 251.857 65.0816 252.094 64.9131 252.398C64.7784 252.702 64.6773 253.039 64.6773 253.445C64.6773 253.85 64.7447 254.221 64.8794 254.525C65.0142 254.829 65.2163 255.099 65.4858 255.302C65.7216 255.504 66.0248 255.673 66.3616 255.775C66.6985 255.876 67.069 255.944 67.4396 255.944C67.8101 255.944 68.2144 255.842 68.5512 255.741ZM68.3491 250.135C68.6186 250.068 68.8881 249.932 69.0902 249.764C69.2923 249.595 69.4607 249.392 69.5955 249.122C69.7302 248.852 69.7976 248.548 69.7976 248.21C69.7976 247.906 69.7302 247.636 69.6292 247.4C69.4944 247.163 69.3597 246.961 69.1576 246.826C68.9554 246.657 68.7196 246.555 68.4165 246.454C68.147 246.353 67.8438 246.319 67.507 246.319C67.2038 246.319 66.9343 246.353 66.6311 246.454C66.3616 246.522 66.0921 246.657 65.89 246.826C65.6879 246.994 65.4858 247.163 65.3847 247.4C65.25 247.636 65.1826 247.906 65.1826 248.21C65.1826 248.582 65.25 248.886 65.3847 249.156C65.5195 249.426 65.6879 249.629 65.9237 249.797C66.1258 249.966 66.3953 250.068 66.6648 250.169C66.9343 250.236 67.2375 250.27 67.507 250.27C67.7764 250.236 68.0459 250.203 68.3491 250.135Z" fill="#614546"/>
<path d="M68.0453 260.738H67.3716V398.419H68.0453V260.738Z" fill="#614546"/>
<path d="M65.6552 412.027C66.0594 412.399 66.5647 412.602 67.2047 412.602C67.8448 412.602 68.3501 412.433 68.7543 412.129C69.1585 411.825 69.428 411.386 69.6638 410.913C69.8659 410.44 70.0344 409.9 70.1017 409.326C70.1691 408.752 70.2028 408.211 70.2028 407.739H70.1691C69.8996 408.279 69.5291 408.718 68.9901 409.056C68.4511 409.393 67.8785 409.562 67.2721 409.562C66.7331 409.562 66.2279 409.461 65.7899 409.292C65.352 409.123 64.9815 408.853 64.6446 408.549C64.3414 408.245 64.1056 407.84 63.9372 407.401C63.7688 406.962 63.6677 406.455 63.6677 405.949C63.6677 405.409 63.7688 404.936 63.9372 404.463C64.1056 404.024 64.3751 403.619 64.712 403.281C65.0488 402.943 65.4194 402.707 65.891 402.504C66.3626 402.302 66.8342 402.234 67.3732 402.234C68.0469 402.234 68.6196 402.335 69.0912 402.538C69.5628 402.741 69.967 403.078 70.2702 403.551C70.5733 404.024 70.8091 404.598 70.9439 405.341C71.1123 406.084 71.1797 406.962 71.1797 408.043C71.1797 408.245 71.1797 408.549 71.146 408.887C71.1123 409.225 71.0449 409.63 70.9776 410.001C70.8765 410.407 70.7418 410.812 70.5733 411.217C70.4049 411.622 70.1691 411.994 69.8996 412.331C69.6301 412.669 69.2596 412.939 68.8217 413.142C68.3838 413.344 67.8785 413.446 67.3058 413.446C66.3289 413.446 65.5541 413.209 64.9815 412.737C64.4088 412.264 64.072 411.555 63.9709 410.609H64.9478C65.0152 411.183 65.251 411.656 65.6552 412.027ZM68.4174 408.482C68.7543 408.347 69.0238 408.11 69.2596 407.874C69.4954 407.604 69.6638 407.3 69.7986 406.962C69.9333 406.624 69.967 406.253 69.967 405.848C69.967 405.442 69.8996 405.071 69.7986 404.733C69.6975 404.395 69.5291 404.091 69.2933 403.855C69.0575 403.585 68.788 403.416 68.4511 403.247C68.1143 403.112 67.71 403.045 67.2384 403.045C66.8679 403.045 66.4973 403.112 66.1942 403.281C65.8573 403.45 65.5878 403.652 65.352 403.889C65.1162 404.159 64.9478 404.429 64.813 404.801C64.6783 405.138 64.6109 405.51 64.6109 405.881C64.6109 406.287 64.6783 406.658 64.7794 406.996C64.9141 407.333 65.0825 407.671 65.2846 407.908C65.5204 408.178 65.7899 408.38 66.0931 408.515C66.43 408.684 66.8005 408.752 67.2047 408.752C67.71 408.718 68.0806 408.617 68.4174 408.482Z" fill="#614546"/>
<path d="M308.429 407.841H74.6484V408.516H308.429V407.841Z" fill="#614546"/>
<path d="M322.138 417.431H321.464V449.208H322.138V417.431Z" fill="#614546"/>
<path d="M313.918 404.329C314.255 404.295 314.558 404.194 314.828 404.059C315.097 403.924 315.299 403.721 315.468 403.451C315.636 403.181 315.771 402.776 315.838 402.303H316.613V413.211H315.636V405.106H312.773V404.397C313.211 404.397 313.581 404.363 313.918 404.329Z" fill="#614546"/>
<path d="M326.147 402.708C326.652 403.045 327.023 403.484 327.292 404.025C327.562 404.565 327.764 405.173 327.865 405.815C327.966 406.49 328 407.132 328 407.773C328 408.415 327.932 409.056 327.865 409.732C327.764 410.407 327.595 410.981 327.292 411.522C327.023 412.062 326.619 412.501 326.147 412.839C325.642 413.176 325.002 413.345 324.227 413.345C323.452 413.345 322.812 413.176 322.307 412.839C321.802 412.501 321.431 412.062 321.161 411.522C320.892 410.981 320.69 410.373 320.589 409.732C320.488 409.056 320.454 408.415 320.454 407.773C320.454 407.132 320.521 406.49 320.589 405.815C320.69 405.139 320.858 404.565 321.161 404.025C321.431 403.484 321.835 403.045 322.307 402.708C322.812 402.37 323.452 402.201 324.227 402.201C325.035 402.201 325.675 402.37 326.147 402.708ZM322.745 403.518C322.374 403.822 322.105 404.227 321.903 404.7C321.7 405.173 321.599 405.713 321.532 406.254C321.465 406.794 321.431 407.334 321.431 407.807C321.431 408.28 321.465 408.786 321.532 409.36C321.599 409.901 321.734 410.441 321.903 410.914C322.105 411.387 322.374 411.792 322.745 412.13C323.115 412.433 323.621 412.602 324.227 412.602C324.833 412.602 325.339 412.433 325.709 412.13C326.08 411.826 326.349 411.42 326.551 410.914C326.753 410.441 326.854 409.901 326.922 409.36C326.989 408.82 327.023 408.28 327.023 407.807C327.023 407.334 326.989 406.828 326.922 406.254C326.854 405.679 326.72 405.173 326.551 404.7C326.349 404.227 326.08 403.822 325.709 403.518C325.339 403.18 324.833 403.045 324.227 403.045C323.621 403.045 323.115 403.18 322.745 403.518Z" fill="#614546"/>
</g>
<defs>
<clipPath id="clip0">
<rect width="328" height="464" fill="white"/>
</clipPath>
</defs>
</svg>
