<svg width="75" height="75" viewBox="0 0 75 75" fill="none" xmlns="http://www.w3.org/2000/svg">
    <path d="M37.5009 75C58.2109 75 75 58.2096 75 37.5002C75 16.787 58.2128 0 37.5009 0C16.7891 0 0 16.787 0 37.4998C0 58.2097 16.7891 75 37.5009 75Z" fill="#907D7D" />
    <path d="M17.9518 37.4002L24.3508 30.9821C24.7671 30.5042 24.7164 29.7797 24.2377 29.3641C23.8014 28.9853 23.1509 28.9892 22.7192 29.3736L16.3236 35.7635L9.90276 29.3619C9.45139 28.9172 8.7241 28.9221 8.27888 29.3727C7.83335 29.8233 7.83827 30.5493 8.28964 30.9938L14.6887 37.3901L8.29302 43.7916C7.82721 44.2217 7.79894 44.9474 8.23003 45.4124C8.66081 45.8774 9.38779 45.9057 9.8536 45.4753C9.8705 45.4597 9.88709 45.4434 9.90307 45.4268L16.3156 39.0222L22.703 45.402C23.1359 45.8615 23.8598 45.8836 24.3198 45.4517C24.5511 45.2345 24.6817 44.9309 24.6799 44.6137C24.6814 44.3103 24.561 44.0192 24.3459 43.8051L17.9502 37.3938L17.9518 37.4002ZM55.9938 37.3987C55.9938 38.5489 56.9288 39.4823 58.081 39.4823C59.2339 39.4817 60.1679 38.5486 60.1676 37.3978C60.1673 36.2469 59.2323 35.3144 58.0795 35.3147C56.9322 35.3147 55.9987 36.2481 55.9987 37.3984L55.9938 37.3987ZM52.0443 37.3987C52.0443 34.0731 54.7494 31.364 58.0792 31.364C61.4022 31.364 64.1125 34.0731 64.1125 37.3987C64.1125 40.7243 61.404 43.4334 58.0792 43.4334C54.7448 43.4279 52.0443 40.7277 52.0443 37.3987ZM49.6697 37.3987C49.6697 42.0331 53.4438 45.8072 58.0795 45.8072C62.7151 45.8072 66.4892 42.0365 66.4892 37.4002C66.4892 32.7658 62.7151 28.9917 58.0795 28.9917C53.4337 29.0009 49.6716 32.7624 49.6697 37.4002V37.3987ZM49.0736 29.1353H48.7231C47.6627 29.1353 46.6408 29.4687 45.7875 30.1272C45.6667 29.603 45.2009 29.2303 44.662 29.227C44.0349 29.227 43.5264 29.7346 43.5264 30.3607C43.5264 30.3628 43.5264 30.3653 43.5264 30.3674L43.5297 44.5287C43.5648 45.1603 44.1062 45.6437 44.7388 45.6087C45.3238 45.5762 45.7903 45.1094 45.821 44.5254V35.8169C45.821 32.9161 46.0883 31.7425 48.5731 31.4327C48.8069 31.4045 49.054 31.4094 49.0574 31.4094C49.7355 31.3842 50.2197 30.9158 50.2197 30.2843C50.2179 29.6503 49.7026 29.1374 49.0675 29.1374L49.0736 29.1353ZM27.0544 36.0165C27.0544 35.9831 27.0578 35.95 27.0593 35.9199C27.8825 32.6737 31.1858 30.7085 34.4376 31.5302C36.6323 32.0848 38.3358 33.812 38.8572 36.0116H27.0525L27.0544 36.0165ZM41.2035 35.8C40.7091 33.4611 39.4284 31.5391 37.4795 30.3054C34.5918 28.496 30.8979 28.5945 28.1114 30.5554C25.2901 32.5817 23.9858 36.1165 24.8166 39.4857C25.6852 42.8389 28.512 45.3262 31.9537 45.7655C32.9689 45.8888 33.9576 45.832 34.9762 45.5655C35.8682 45.3489 36.7181 44.9864 37.4911 44.4919C38.3044 43.9702 38.9841 43.28 39.6453 42.4549C39.6555 42.4383 39.6687 42.4267 39.6822 42.4098C40.1397 41.843 40.0546 41.0329 39.5538 40.6495C39.1298 40.3243 38.4181 40.1927 37.8605 40.9096C37.7403 41.0829 37.6048 41.2596 37.4598 41.4347C37.014 41.9264 36.4612 42.4015 35.8 42.7718C34.955 43.2217 33.9963 43.4769 32.9778 43.4837C29.6412 43.4453 27.8579 41.1166 27.2215 39.4563C27.1103 39.1412 27.0249 38.8179 26.9659 38.4894L26.9493 38.3143H38.9223C40.5622 38.2775 41.444 37.1189 41.2001 35.7969L41.2035 35.8Z" fill="#614546" />
</svg>